<svg xmlns="http://www.w3.org/2000/svg" xmlns:xlink="http://www.w3.org/1999/xlink" version="1.1" width="512" height="512" x="0" y="0" viewBox="0 0 512 512" style="enable-background:new 0 0 512 512" xml:space="preserve" class=""><g><path fill="#4d5e80" d="M151 199.545 171.742 241H211V91h-30v101.455l-30-60-30 60V91H91v150h39.258zM301 211h-45v-30h30v-30h-30v-30h45V91h-75v150h75z" opacity="1" data-original="#4d5e80" class=""/><path fill="#3d4b66" d="M391 211h-45V91h-30v150h75z" opacity="1" data-original="#3d4b66"/><path fill="#4d5e80" d="M91 301c8.262 0 15 6.724 15 15h30c0-24.814-20.186-45-45-45s-45 20.186-45 45v60c0 24.814 20.186 45 45 45s45-20.186 45-45h-30c0 8.276-6.738 15-15 15s-15-6.724-15-15v-60c0-8.276 6.738-15 15-15zM196 271c-24.814 0-45 20.186-45 45v60c0 24.814 20.186 45 45 45s45-20.186 45-45v-60c0-24.814-20.186-45-45-45zm15 105c0 8.276-6.738 15-15 15s-15-6.724-15-15v-60c0-8.276 6.738-15 15-15s15 6.724 15 15z" opacity="1" data-original="#4d5e80" class=""/><g fill="#3d4b66"><path d="M316 312.455 295.258 271H256v150h30V319.545l30 60 30-60V421h30V271h-39.258zM466 301v-30h-75v150h75v-30h-45v-30h30v-30h-30v-30zM391 151h60v30h-60z" fill="#3d4b66" opacity="1" data-original="#3d4b66"/></g><path fill="#c6f243" d="M-.002 21.214 21.205.006l53.492 53.492L53.49 74.705z" opacity="1" data-original="#c6f243" class=""/><path fill="#8cd96b" d="M437.24 53.545 490.732.053l21.207 21.208-53.491 53.492z" opacity="1" data-original="#8cd96b"/><path fill="#c6f243" d="m-.05 490.74 53.493-53.491 21.207 21.208-53.491 53.491z" opacity="1" data-original="#c6f243" class=""/><path fill="#8cd96b" d="m437.193 458.503 21.208-21.208 53.492 53.492-21.208 21.207z" opacity="1" data-original="#8cd96b"/><circle cx="15" cy="286" r="15" fill="#c6f243" opacity="1" data-original="#c6f243" class=""/><circle cx="316" cy="15" r="15" fill="#8cd96b" opacity="1" data-original="#8cd96b"/><circle cx="196" cy="497" r="15" fill="#c6f243" opacity="1" data-original="#c6f243" class=""/><circle cx="497" cy="226" r="15" fill="#8cd96b" opacity="1" data-original="#8cd96b"/><g fill="#3d4b66"><path d="M256 211h45v30h-45zM256 151h30v30h-30zM256 91h45v30h-45z" fill="#3d4b66" opacity="1" data-original="#3d4b66"/></g></g></svg>